<svg version="1.1" viewBox="0.0 0.0 128.0 128.0" fill="none" stroke="none" stroke-linecap="square" stroke-miterlimit="10" xmlns:xlink="http://www.w3.org/1999/xlink" xmlns="http://www.w3.org/2000/svg"><clipPath id="p.0"><path d="m0 0l128.0 0l0 128.0l-128.0 0l0 -128.0z" clip-rule="nonzero"/></clipPath><g clip-path="url(#p.0)"><path fill="#000000" fill-opacity="0.0" d="m0 0l128.0 0l0 128.0l-128.0 0z" fill-rule="evenodd"/><path fill="#1c1c1c" d="m2.0609894 60.54865l0 0c0 -32.35672 27.75011 -58.587025 61.981606 -58.587025l0 0c16.438545 0 32.203804 6.1725435 43.827614 17.159742c11.623802 10.987198 18.153992 25.889038 18.153992 41.42728l0 0c0 32.356724 -27.750114 58.587025 -61.981606 58.587025l0 0c-34.231495 0 -61.981606 -26.2303 -61.981606 -58.587025z" fill-rule="evenodd"/><path fill="#1c1c1c" d="m64.74607 96.840645l-57.28024 29.094238l29.105274 -57.258522z" fill-rule="evenodd"/><path fill="#ffffff" d="m24.176989 61.626225l0 0c0 -5.0809593 4.120493 -9.19989 9.203379 -9.19989l0 0c2.4408875 0 4.781803 0.9692688 6.5077705 2.694584c1.7259712 1.7253151 2.69561 4.065342 2.69561 6.5053062l0 0c0 5.0809593 -4.120495 9.199886 -9.203381 9.199886l0 0c-5.0828857 0 -9.203379 -4.118927 -9.203379 -9.199886z" fill-rule="evenodd"/><path fill="#ffffff" d="m54.84523 61.626225l0 0c0 -5.0809593 4.120491 -9.19989 9.203377 -9.19989l0 0c2.4408875 0 4.781807 0.9692688 6.5077744 2.694584c1.7259674 1.7253151 2.69561 4.065342 2.69561 6.5053062l0 0c0 5.0809593 -4.1204987 9.199886 -9.203384 9.199886l0 0c-5.0828857 0 -9.203377 -4.118927 -9.203377 -9.199886z" fill-rule="evenodd"/><path fill="#ffffff" d="m85.516235 61.626225l0 0c0 -5.0809593 4.1204987 -9.19989 9.203384 -9.19989l0 0c2.4408875 0 4.7817993 0.9692688 6.5077744 2.694584c1.7259674 1.7253151 2.6956024 4.065342 2.6956024 6.5053062l0 0c0 5.0809593 -4.120491 9.199886 -9.203377 9.199886l0 0c-5.0828857 0 -9.203384 -4.118927 -9.203384 -9.199886z" fill-rule="evenodd"/></g></svg>